<svg version="1.1" xmlns="http://www.w3.org/2000/svg" width="1300" height="1076">
    <defs/>
    <g>

        <g transform="translate(-390,-14) scale(1,1)">
            <rect fill="#C0C0C0" stroke="none" x="407" y="383" width="172.39999999999998" height="15" opacity="0.2"/>
        </g>
        <g transform="translate(-390,-14) scale(1,1)">
            <rect fill="#C0C0C0" stroke="none" x="407" y="397" width="431" height="234" opacity="0.2"/>
        </g>
        <g transform="translate(-390,-14) scale(1,1)">
            <rect fill="#ffffff" stroke="none" x="400" y="391" width="431" height="233"/>
        </g>
        <g transform="translate(-390,-14) scale(1,1)">
            <path fill="none" stroke="#000000" d="M 400 391 L 831 391 L 831 624 L 400 624 L 400 391 Z Z"
                  stroke-miterlimit="10"/>
        </g>
        <g transform="translate(-390,-14) scale(1,1)">
            <rect fill="#ffffff" stroke="none" x="400" y="376" width="172.39999999999998" height="15"/>
        </g>
        <g transform="translate(-390,-14) scale(1,1)">
            <path fill="none" stroke="#000000" d="M 400 376 L 572.4 376 L 572.4 391 L 400 391 L 400 376 Z Z"
                  stroke-miterlimit="10"/>
        </g>
        <g transform="translate(-390,-14) scale(1,1)">
            <rect fill="#ffffff" stroke="none" x="400" y="390" width="431" height="234"/>
        </g>
        <g transform="translate(-390,-14) scale(1,1)">
            <path fill="none" stroke="#000000" d="M 400 390 L 831 390 L 831 624 L 400 624 L 400 390 Z Z"
                  stroke-miterlimit="10"/>
        </g>
        <g transform="translate(-390,-14) scale(1,1)">
            <g>
                <path fill="none" stroke="none"/>
                <text fill="#000000" stroke="none" font-family="Arial" font-size="13px" font-style="normal"
                      font-weight="bold" text-decoration="none" x="588.766845703125" y="410.5">controller
                </text>
            </g>
        </g>
        <g transform="translate(-390,-14) scale(1,1)">
            <rect fill="#C0C0C0" stroke="none" x="479" y="471" width="220.85302734375" height="70" opacity="0.2"/>
        </g>
        <g transform="translate(-390,-14) scale(1,1)">
            <rect fill="#ffffff" stroke="none" x="472" y="464" width="220.85302734375" height="70"/>
        </g>
        <g transform="translate(-390,-14) scale(1,1)">
            <path fill="none" stroke="#000000"
                  d="M 472 464 L 692.85302734375 464 L 692.85302734375 534 L 472 534 L 472 464 Z Z"
                  stroke-miterlimit="10"/>
        </g>
        <g transform="translate(-390,-14) scale(1,1)">
            <path fill="none" stroke="#000000" d="M 472 489 L 692.85302734375 489" stroke-miterlimit="10"/>
        </g>
        <g transform="translate(-390,-14) scale(1,1)">
            <path fill="none" stroke="#000000" d="M 472 512 L 692.85302734375 512" stroke-miterlimit="10"/>
        </g>
        <g transform="translate(-390,-14) scale(1,1)">
            <g>
                <path fill="none" stroke="none"/>
                <text fill="#000000" stroke="none" font-family="Arial" font-size="13px" font-style="normal"
                      font-weight="bold" text-decoration="none" x="554.249267578125" y="483.5">Controller
                </text>
            </g>
        </g>
        <g transform="translate(-390,-14) scale(1,1)">
            <g>
                <path fill="none" stroke="none"/>
                <text fill="#000000" stroke="none" font-family="Arial" font-size="13px" font-style="normal"
                      font-weight="normal" text-decoration="none" x="477" y="506.5">-model: Game
                </text>
            </g>
        </g>
        <g transform="translate(-390,-14) scale(1,1)">
            <g>
                <path fill="none" stroke="none"/>
                <text fill="#000000" stroke="none" font-family="Arial" font-size="13px" font-style="normal"
                      font-weight="normal" text-decoration="none" x="477" y="529.5">+update(action: ViewClientMessage)
                </text>
            </g>
        </g>
        <g transform="translate(-390,-14) scale(1,1)">
            <rect fill="#C0C0C0" stroke="none" x="1119" y="375" width="172.79999999999995" height="15" opacity="0.2"/>
        </g>
        <g transform="translate(-390,-14) scale(1,1)">
            <rect fill="#C0C0C0" stroke="none" x="1119" y="389" width="432" height="242" opacity="0.2"/>
        </g>
        <g transform="translate(-390,-14) scale(1,1)">
            <rect fill="#ffffff" stroke="none" x="1112" y="383" width="432" height="241"/>
        </g>
        <g transform="translate(-390,-14) scale(1,1)">
            <path fill="none" stroke="#000000" d="M 1112 383 L 1544 383 L 1544 624 L 1112 624 L 1112 383 Z Z"
                  stroke-miterlimit="10"/>
        </g>
        <g transform="translate(-390,-14) scale(1,1)">
            <rect fill="#ffffff" stroke="none" x="1112" y="368" width="172.79999999999995" height="15"/>
        </g>
        <g transform="translate(-390,-14) scale(1,1)">
            <path fill="none" stroke="#000000" d="M 1112 368 L 1284.8 368 L 1284.8 383 L 1112 383 L 1112 368 Z Z"
                  stroke-miterlimit="10"/>
        </g>
        <g transform="translate(-390,-14) scale(1,1)">
            <rect fill="#ffffff" stroke="none" x="1112" y="382" width="432" height="242"/>
        </g>
        <g transform="translate(-390,-14) scale(1,1)">
            <path fill="none" stroke="#000000" d="M 1112 382 L 1544 382 L 1544 624 L 1112 624 L 1112 382 Z Z"
                  stroke-miterlimit="10"/>
        </g>
        <g transform="translate(-390,-14) scale(1,1)">
            <g>
                <path fill="none" stroke="none"/>
                <text fill="#000000" stroke="none" font-family="Arial" font-size="13px" font-style="normal"
                      font-weight="bold" text-decoration="none" x="1310.29638671875" y="402.5">model
                </text>
            </g>
        </g>
        <g transform="translate(-390,-14) scale(1,1)">
            <rect fill="#C0C0C0" stroke="none" x="1239" y="487" width="159" height="40" opacity="0.2"/>
        </g>
        <g transform="translate(-390,-14) scale(1,1)">
            <rect fill="#ffffff" stroke="none" x="1232" y="480" width="159" height="40"/>
        </g>
        <g transform="translate(-390,-14) scale(1,1)">
            <path fill="none" stroke="#000000" d="M 1232 480 L 1391 480 L 1391 520 L 1232 520 L 1232 480 Z Z"
                  stroke-miterlimit="10"/>
        </g>
        <g transform="translate(-390,-14) scale(1,1)">
            <g>
                <path fill="none" stroke="none"/>
                <text fill="#000000" stroke="none" font-family="Arial" font-size="13px" font-style="normal"
                      font-weight="bold" text-decoration="none" x="1293.799560546875" y="499.5">Game
                </text>
            </g>
        </g>
        <g transform="translate(-390,-14) scale(1,1)">
            <path fill="none" stroke="#000000" d="M 693 496 L 1232 496" stroke-miterlimit="10"/>
        </g>
        <g transform="translate(-390,-14) scale(1,1)">
            <g>
                <path fill="none" stroke="none"/>
                <text fill="#000000" stroke="none" font-family="Arial" font-size="13px" font-style="normal"
                      font-weight="normal" text-decoration="none" x="698.13134765625" y="487.5">-Model
                </text>
            </g>
        </g>
        <g transform="translate(-390,-14) scale(1,1)">
            <g>
                <path fill="none" stroke="none"/>
                <text fill="#000000" stroke="none" font-family="Arial" font-size="13px" font-style="normal"
                      font-weight="normal" text-decoration="none" x="710.5" y="514.5">1
                </text>
            </g>
        </g>
        <g transform="translate(-390,-14) scale(1,1)">
            <g>
                <path fill="none" stroke="none"/>
                <text fill="#000000" stroke="none" font-family="Arial" font-size="13px" font-style="normal"
                      font-weight="normal" text-decoration="none" x="1162.13134765625" y="487.5">-Controller
                </text>
            </g>
        </g>
        <g transform="translate(-390,-14) scale(1,1)">
            <g>
                <path fill="none" stroke="none"/>
                <text fill="#000000" stroke="none" font-family="Arial" font-size="13px" font-style="normal"
                      font-weight="normal" text-decoration="none" x="1206.5" y="514.5">1
                </text>
            </g>
        </g>
        <g transform="translate(-390,-14) scale(1,1)">
            <rect fill="#C0C0C0" stroke="none" x="647" y="31" width="249.20000000000005" height="15" opacity="0.2"/>
        </g>
        <g transform="translate(-390,-14) scale(1,1)">
            <rect fill="#C0C0C0" stroke="none" x="647" y="45" width="623" height="177" opacity="0.2"/>
        </g>
        <g transform="translate(-390,-14) scale(1,1)">
            <rect fill="#ffffff" stroke="none" x="640" y="39" width="623" height="176"/>
        </g>
        <g transform="translate(-390,-14) scale(1,1)">
            <path fill="none" stroke="#000000" d="M 640 39 L 1263 39 L 1263 215 L 640 215 L 640 39 Z Z"
                  stroke-miterlimit="10"/>
        </g>
        <g transform="translate(-390,-14) scale(1,1)">
            <rect fill="#ffffff" stroke="none" x="640" y="24" width="249.20000000000005" height="15"/>
        </g>
        <g transform="translate(-390,-14) scale(1,1)">
            <path fill="none" stroke="#000000" d="M 640 24 L 889.2 24 L 889.2 39 L 640 39 L 640 24 Z Z"
                  stroke-miterlimit="10"/>
        </g>
        <g transform="translate(-390,-14) scale(1,1)">
            <rect fill="#ffffff" stroke="none" x="640" y="38" width="623" height="177"/>
        </g>
        <g transform="translate(-390,-14) scale(1,1)">
            <path fill="none" stroke="#000000" d="M 640 38 L 1263 38 L 1263 215 L 640 215 L 640 38 Z Z"
                  stroke-miterlimit="10"/>
        </g>
        <g transform="translate(-390,-14) scale(1,1)">
            <g>
                <path fill="none" stroke="none"/>
                <text fill="#000000" stroke="none" font-family="Arial" font-size="13px" font-style="normal"
                      font-weight="bold" text-decoration="none" x="938.496826171875" y="58.5">view
                </text>
            </g>
        </g>
        <g transform="translate(-390,-14) scale(1,1)">
            <rect fill="#C0C0C0" stroke="none" x="807" y="71" width="326.56689453125" height="92" opacity="0.2"/>
        </g>
        <g transform="translate(-390,-14) scale(1,1)">
            <rect fill="#ffffff" stroke="none" x="800" y="64" width="326.56689453125" height="92"/>
        </g>
        <g transform="translate(-390,-14) scale(1,1)">
            <path fill="none" stroke="#000000"
                  d="M 800 64 L 1126.56689453125 64 L 1126.56689453125 156 L 800 156 L 800 64 Z Z"
                  stroke-miterlimit="10"/>
        </g>
        <g transform="translate(-390,-14) scale(1,1)">
            <path fill="none" stroke="#000000" d="M 800 89 L 1126.56689453125 89" stroke-miterlimit="10"/>
        </g>
        <g transform="translate(-390,-14) scale(1,1)">
            <g>
                <path fill="none" stroke="none"/>
                <text fill="#000000" stroke="none" font-family="Arial" font-size="13px" font-style="normal"
                      font-weight="bold" text-decoration="none" x="931.005615234375" y="83.5">VirtualView
                </text>
            </g>
        </g>
        <g transform="translate(-390,-14) scale(1,1)">
            <g>
                <path fill="none" stroke="none"/>
                <text fill="#000000" stroke="none" font-family="Arial" font-size="13px" font-style="normal"
                      font-weight="normal" text-decoration="none" x="805" y="106.5">+updateFromClient(message:
                    Transmittable)
                </text>
            </g>
        </g>
        <g transform="translate(-390,-14) scale(1,1)">
            <g>
                <path fill="none" stroke="none"/>
                <text fill="#000000" stroke="none" font-family="Arial" font-size="13px" font-style="normal"
                      font-weight="normal" text-decoration="none" x="805" y="121.5">+updateFromClient(message:
                    Disconnection Message)
                </text>
            </g>
        </g>
        <g transform="translate(-390,-14) scale(1,1)">
            <g>
                <path fill="none" stroke="none"/>
                <text fill="#000000" stroke="none" font-family="Arial" font-size="13px" font-style="normal"
                      font-weight="normal" text-decoration="none" x="805" y="136.5">+updateFromGame(message:
                    Transmittable)
                </text>
            </g>
        </g>
        <g transform="translate(-390,-14) scale(1,1)">
            <g>
                <path fill="none" stroke="none"/>
                <text fill="#000000" stroke="none" font-family="Arial" font-size="13px" font-style="normal"
                      font-weight="normal" text-decoration="none" x="805" y="151.5">+requestDisconnection()
                </text>
            </g>
        </g>
        <g transform="translate(-390,-14) scale(1,1)">
            <path fill="none" stroke="#000000" d="M 617 463 L 917 157" stroke-miterlimit="10"/>
        </g>
        <g transform="translate(-390,-14) scale(1,1)">
            <g>
                <path fill="none" stroke="none"/>
                <text fill="#000000" stroke="none" font-family="Arial" font-size="13px" font-style="normal"
                      font-weight="normal" text-decoration="none" x="577.13134765625" y="460.5">-View
                </text>
            </g>
        </g>
        <g transform="translate(-390,-14) scale(1,1)">
            <g>
                <path fill="none" stroke="none"/>
                <text fill="#000000" stroke="none" font-family="Arial" font-size="13px" font-style="normal"
                      font-weight="normal" text-decoration="none" x="631.5" y="462.5">1..*
                </text>
            </g>
        </g>
        <g transform="translate(-390,-14) scale(1,1)">
            <g>
                <path fill="none" stroke="none"/>
                <text fill="#000000" stroke="none" font-family="Arial" font-size="13px" font-style="normal"
                      font-weight="normal" text-decoration="none" x="806.13134765625" y="180.5">-Controller
                </text>
            </g>
        </g>
        <g transform="translate(-390,-14) scale(1,1)">
            <g>
                <path fill="none" stroke="none"/>
                <text fill="#000000" stroke="none" font-family="Arial" font-size="13px" font-style="normal"
                      font-weight="normal" text-decoration="none" x="906.5" y="187.5">1
                </text>
            </g>
        </g>
        <g transform="translate(-390,-14) scale(1,1)">
            <path fill="none" stroke="#000000" d="M 1292 479 L 1005 157" stroke-miterlimit="10"/>
        </g>
        <g transform="translate(-390,-14) scale(1,1)">
            <g>
                <path fill="none" stroke="none"/>
                <text fill="#000000" stroke="none" font-family="Arial" font-size="13px" font-style="normal"
                      font-weight="normal" text-decoration="none" x="1235.13134765625" y="474.5">-View
                </text>
            </g>
        </g>
        <g transform="translate(-390,-14) scale(1,1)">
            <g>
                <path fill="none" stroke="none"/>
                <text fill="#000000" stroke="none" font-family="Arial" font-size="13px" font-style="normal"
                      font-weight="normal" text-decoration="none" x="1299.5" y="477.5">1..*
                </text>
            </g>
        </g>
        <g transform="translate(-390,-14) scale(1,1)">
            <g>
                <path fill="none" stroke="none"/>
                <text fill="#000000" stroke="none" font-family="Arial" font-size="13px" font-style="normal"
                      font-weight="normal" text-decoration="none" x="1043.13134765625" y="185.5">-Model
                </text>
            </g>
        </g>
        <g transform="translate(-390,-14) scale(1,1)">
            <g>
                <path fill="none" stroke="none"/>
                <text fill="#000000" stroke="none" font-family="Arial" font-size="13px" font-style="normal"
                      font-weight="normal" text-decoration="none" x="1009.5" y="188.5">1
                </text>
            </g>
        </g>
        <g transform="translate(-390,-14) scale(1,1)">
            <rect fill="#C0C0C0" stroke="none" x="679" y="839" width="403.20000000000005" height="15" opacity="0.2"/>
        </g>
        <g transform="translate(-390,-14) scale(1,1)">
            <rect fill="#C0C0C0" stroke="none" x="679" y="853" width="1008" height="234" opacity="0.2"/>
        </g>
        <g transform="translate(-390,-14) scale(1,1)">
            <rect fill="#ffffff" stroke="none" x="672" y="847" width="1008" height="233"/>
        </g>
        <g transform="translate(-390,-14) scale(1,1)">
            <path fill="none" stroke="#000000" d="M 672 847 L 1680 847 L 1680 1080 L 672 1080 L 672 847 Z Z"
                  stroke-miterlimit="10"/>
        </g>
        <g transform="translate(-390,-14) scale(1,1)">
            <rect fill="#ffffff" stroke="none" x="672" y="832" width="403.20000000000005" height="15"/>
        </g>
        <g transform="translate(-390,-14) scale(1,1)">
            <path fill="none" stroke="#000000" d="M 672 832 L 1075.2 832 L 1075.2 847 L 672 847 L 672 832 Z Z"
                  stroke-miterlimit="10"/>
        </g>
        <g transform="translate(-390,-14) scale(1,1)">
            <rect fill="#ffffff" stroke="none" x="672" y="846" width="1008" height="234"/>
        </g>
        <g transform="translate(-390,-14) scale(1,1)">
            <path fill="none" stroke="#000000" d="M 672 846 L 1680 846 L 1680 1080 L 672 1080 L 672 846 Z Z"
                  stroke-miterlimit="10"/>
        </g>
        <g transform="translate(-390,-14) scale(1,1)">
            <g>
                <path fill="none" stroke="none"/>
                <text fill="#000000" stroke="none" font-family="Arial" font-size="13px" font-style="normal"
                      font-weight="bold" text-decoration="none" x="1164.44091796875" y="866.5">utils
                </text>
            </g>
        </g>
        <g transform="translate(-390,-14) scale(1,1)">
            <rect fill="#C0C0C0" stroke="none" x="687" y="887" width="275.20000000000005" height="15" opacity="0.2"/>
        </g>
        <g transform="translate(-390,-14) scale(1,1)">
            <rect fill="#C0C0C0" stroke="none" x="687" y="901" width="688" height="178" opacity="0.2"/>
        </g>
        <g transform="translate(-390,-14) scale(1,1)">
            <rect fill="#ffffff" stroke="none" x="680" y="895" width="688" height="177"/>
        </g>
        <g transform="translate(-390,-14) scale(1,1)">
            <path fill="none" stroke="#000000" d="M 680 895 L 1368 895 L 1368 1072 L 680 1072 L 680 895 Z Z"
                  stroke-miterlimit="10"/>
        </g>
        <g transform="translate(-390,-14) scale(1,1)">
            <rect fill="#ffffff" stroke="none" x="680" y="880" width="275.20000000000005" height="15"/>
        </g>
        <g transform="translate(-390,-14) scale(1,1)">
            <path fill="none" stroke="#000000" d="M 680 880 L 955.2 880 L 955.2 895 L 680 895 L 680 880 Z Z"
                  stroke-miterlimit="10"/>
        </g>
        <g transform="translate(-390,-14) scale(1,1)">
            <rect fill="#ffffff" stroke="none" x="680" y="894" width="688" height="178"/>
        </g>
        <g transform="translate(-390,-14) scale(1,1)">
            <path fill="none" stroke="#000000" d="M 680 894 L 1368 894 L 1368 1072 L 680 1072 L 680 894 Z Z"
                  stroke-miterlimit="10"/>
        </g>
        <g transform="translate(-390,-14) scale(1,1)">
            <g>
                <path fill="none" stroke="none"/>
                <text fill="#000000" stroke="none" font-family="Arial" font-size="13px" font-style="normal"
                      font-weight="bold" text-decoration="none" x="998.7109375" y="914.5">observer
                </text>
            </g>
        </g>
        <g transform="translate(-390,-14) scale(1,1)">
            <rect fill="#C0C0C0" stroke="none" x="719" y="975" width="115.9326171875" height="37" opacity="0.2"/>
        </g>
        <g transform="translate(-390,-14) scale(1,1)">
            <rect fill="#ffffff" stroke="none" x="712" y="968" width="115.9326171875" height="37"/>
        </g>
        <g transform="translate(-390,-14) scale(1,1)">
            <path fill="none" stroke="#000000"
                  d="M 712 968 L 827.9326171875 968 L 827.9326171875 1005 L 712 1005 L 712 968 Z Z"
                  stroke-miterlimit="10"/>
        </g>
        <g transform="translate(-390,-14) scale(1,1)">
            <g>
                <path fill="none" stroke="none"/>
                <text fill="#000000" stroke="none" font-family="Arial" font-size="13px" font-style="normal"
                      font-weight="normal" text-decoration="none" x="737.805908203125" y="985.5">«interface»
                </text>
            </g>
        </g>
        <g transform="translate(-390,-14) scale(1,1)">
            <g>
                <path fill="none" stroke="none"/>
                <text fill="#000000" stroke="none" font-family="Arial" font-size="13px" font-style="normal"
                      font-weight="bold" text-decoration="none" x="719.746826171875" y="1000.5">LambdaObserver
                </text>
            </g>
        </g>
        <g transform="translate(-390,-14) scale(1,1)">
            <path fill="none" stroke="#000000" d="M 828 976 L 952 976" stroke-miterlimit="10"/>
        </g>
        <g transform="translate(-390,-14) scale(1,1)">
            <path fill="#FFFFFF" stroke="none"
                  d="M 941.8373251423759 980.209517756016 L 952 976 L 941.8373251423758 971.790482243984 L 930 976"/>
        </g>
        <g transform="translate(-390,-14) scale(1,1)">
            <path fill="none" stroke="#000000"
                  d="M 941.8373251423759 980.209517756016 L 952 976 L 941.8373251423758 971.790482243984 L 930 976 L 941.8373251423759 980.209517756016"
                  stroke-miterlimit="10"/>
        </g>
        <g transform="translate(-390,-14) scale(1,1)">
            <rect fill="#C0C0C0" stroke="none" x="959" y="935" width="390.14501953125" height="128" opacity="0.2"/>
        </g>
        <g transform="translate(-390,-14) scale(1,1)">
            <rect fill="#ffffff" stroke="none" x="952" y="928" width="390.14501953125" height="128"/>
        </g>
        <g transform="translate(-390,-14) scale(1,1)">
            <path fill="none" stroke="#000000"
                  d="M 952 928 L 1342.14501953125 928 L 1342.14501953125 1056 L 952 1056 L 952 928 Z Z"
                  stroke-miterlimit="10"/>
        </g>
        <g transform="translate(-390,-14) scale(1,1)">
            <path fill="none" stroke="#000000" d="M 952 966 L 1342.14501953125 966" stroke-miterlimit="10"/>
        </g>
        <g transform="translate(-390,-14) scale(1,1)">
            <path fill="none" stroke="#000000" d="M 952 989 L 1342.14501953125 989" stroke-miterlimit="10"/>
        </g>
        <g transform="translate(-390,-14) scale(1,1)">
            <g>
                <path fill="none" stroke="none"/>
                <text fill="#000000" stroke="none" font-family="Arial" font-size="13px" font-style="normal"
                      font-weight="normal" text-decoration="none" x="1135.8720703125" y="945.5">«T»
                </text>
            </g>
        </g>
        <g transform="translate(-390,-14) scale(1,1)">
            <g>
                <path fill="none" stroke="none"/>
                <text fill="#000000" stroke="none" font-family="Arial" font-size="13px" font-style="normal"
                      font-weight="bold" text-decoration="none" x="1090.343505859375" y="960.5">LambdaObservable
                </text>
            </g>
        </g>
        <g transform="translate(-390,-14) scale(1,1)">
            <g>
                <path fill="none" stroke="none"/>
                <text fill="#000000" stroke="none" font-family="Arial" font-size="13px" font-style="normal"
                      font-weight="normal" text-decoration="none" x="957" y="983.5">-observers: Map {readOnly}
                </text>
            </g>
        </g>
        <g transform="translate(-390,-14) scale(1,1)">
            <g>
                <path fill="none" stroke="none"/>
                <text fill="#000000" stroke="none" font-family="Arial" font-size="13px" font-style="normal"
                      font-weight="normal" text-decoration="none" x="957" y="1006.5">+addObserver(observer:
                    LambdaObserver, lambda : BiConsumer)
                </text>
            </g>
        </g>
        <g transform="translate(-390,-14) scale(1,1)">
            <g>
                <path fill="none" stroke="none"/>
                <text fill="#000000" stroke="none" font-family="Arial" font-size="13px" font-style="normal"
                      font-weight="normal" text-decoration="none" x="957" y="1021.5">+removeObserver(observer:
                    LambdaObserver)
                </text>
            </g>
        </g>
        <g transform="translate(-390,-14) scale(1,1)">
            <g>
                <path fill="none" stroke="none"/>
                <text fill="#000000" stroke="none" font-family="Arial" font-size="13px" font-style="normal"
                      font-weight="normal" text-decoration="none" x="957" y="1036.5">+notify(message: T)
                </text>
            </g>
        </g>
        <g transform="translate(-390,-14) scale(1,1)">
            <g>
                <path fill="none" stroke="none"/>
                <text fill="#000000" stroke="none" font-family="Arial" font-size="13px" font-style="normal"
                      font-weight="normal" text-decoration="none" x="957" y="1051.5">+notify(message: T,
                    requireAtLeastOneObserver: boolean)
                </text>
            </g>
        </g>
        <g transform="translate(-390,-14) scale(1,1)">
            <path fill="none" stroke="#000000" d="M 953 157 L 773 967" stroke-miterlimit="10" stroke-dasharray="3"/>
        </g>
        <g transform="translate(-390,-14) scale(1,1)">
            <path fill="#FFFFFF" stroke="none"
                  d="M 769.1906338929783 945.3323113862444 L 773 967 L 785.6277409451279 948.9850018422776"/>
        </g>
        <g transform="translate(-390,-14) scale(1,1)">
            <path fill="none" stroke="#000000"
                  d="M 769.1906338929783 945.3323113862444 L 773 967 L 785.6277409451279 948.9850018422776 L 769.1906338929783 945.3323113862444"
                  stroke-miterlimit="10"/>
        </g>
        <g transform="translate(-390,-14) scale(1,1)">
            <path fill="none" stroke="#000000" d="M 596 535 L 762 967" stroke-miterlimit="10" stroke-dasharray="3"/>
        </g>
        <g transform="translate(-390,-14) scale(1,1)">
            <path fill="#FFFFFF" stroke="none"
                  d="M 746.8507038818182 951.046980626739 L 762 967 L 762.5683181638639 945.0073418053973"/>
        </g>
        <g transform="translate(-390,-14) scale(1,1)">
            <path fill="none" stroke="#000000"
                  d="M 746.8507038818182 951.046980626739 L 762 967 L 762.5683181638639 945.0073418053973 L 746.8507038818182 951.046980626739"
                  stroke-miterlimit="10"/>
        </g>
        <g transform="translate(-390,-14) scale(1,1)">
            <path fill="none" stroke="#000000" d="M 973 157 L 1133 927" stroke-miterlimit="10"/>
        </g>
        <g transform="translate(-390,-14) scale(1,1)">
            <path fill="#FFFFFF" stroke="none"
                  d="M 1120.6219191951811 908.8125561007223 L 1133 927 L 1137.1078400384667 905.3869102112084"/>
        </g>
        <g transform="translate(-390,-14) scale(1,1)">
            <path fill="none" stroke="#000000"
                  d="M 1120.6219191951811 908.8125561007223 L 1133 927 L 1137.1078400384667 905.3869102112084 L 1120.6219191951811 908.8125561007223"
                  stroke-miterlimit="10"/>
        </g>
        <g transform="translate(-390,-14) scale(1,1)">
            <path fill="none" stroke="#000000" d="M 1304 521 L 1169 927" stroke-miterlimit="10"/>
        </g>
        <g transform="translate(-390,-14) scale(1,1)">
            <path fill="#FFFFFF" stroke="none"
                  d="M 1167.4242227329742 905.0565060666099 L 1169 927 L 1183.4021505720723 910.3693638456205"/>
        </g>
        <g transform="translate(-390,-14) scale(1,1)">
            <path fill="none" stroke="#000000"
                  d="M 1167.4242227329742 905.0565060666099 L 1169 927 L 1183.4021505720723 910.3693638456205 L 1167.4242227329742 905.0565060666099"
                  stroke-miterlimit="10"/>
        </g>
        <g transform="translate(-390,-14) scale(1,1)">
            <rect fill="#C0C0C0" stroke="none" x="1423" y="903" width="102" height="15" opacity="0.2"/>
        </g>
        <g transform="translate(-390,-14) scale(1,1)">
            <rect fill="#C0C0C0" stroke="none" x="1423" y="917" width="255" height="161" opacity="0.2"/>
        </g>
        <g transform="translate(-390,-14) scale(1,1)">
            <rect fill="#ffffff" stroke="none" x="1416" y="911" width="255" height="160"/>
        </g>
        <g transform="translate(-390,-14) scale(1,1)">
            <path fill="none" stroke="#000000" d="M 1416 911 L 1671 911 L 1671 1071 L 1416 1071 L 1416 911 Z Z"
                  stroke-miterlimit="10"/>
        </g>
        <g transform="translate(-390,-14) scale(1,1)">
            <rect fill="#ffffff" stroke="none" x="1416" y="896" width="102" height="15"/>
        </g>
        <g transform="translate(-390,-14) scale(1,1)">
            <path fill="none" stroke="#000000" d="M 1416 896 L 1518 896 L 1518 911 L 1416 911 L 1416 896 Z Z"
                  stroke-miterlimit="10"/>
        </g>
        <g transform="translate(-390,-14) scale(1,1)">
            <rect fill="#ffffff" stroke="none" x="1416" y="910" width="255" height="161"/>
        </g>
        <g transform="translate(-390,-14) scale(1,1)">
            <path fill="none" stroke="#000000" d="M 1416 910 L 1671 910 L 1671 1071 L 1416 1071 L 1416 910 Z Z"
                  stroke-miterlimit="10"/>
        </g>
        <g transform="translate(-390,-14) scale(1,1)">
            <g>
                <path fill="none" stroke="none"/>
                <text fill="#000000" stroke="none" font-family="Arial" font-size="13px" font-style="normal"
                      font-weight="bold" text-decoration="none" x="1512.06640625" y="930.5">networking
                </text>
            </g>
        </g>
        <g transform="translate(-390,-14) scale(1,1)">
            <rect fill="#C0C0C0" stroke="none" x="1455" y="983" width="199" height="56" opacity="0.2"/>
        </g>
        <g transform="translate(-390,-14) scale(1,1)">
            <rect fill="#ffffff" stroke="none" x="1448" y="976" width="199" height="56"/>
        </g>
        <g transform="translate(-390,-14) scale(1,1)">
            <path fill="none" stroke="#000000" d="M 1448 976 L 1647 976 L 1647 1032 L 1448 1032 L 1448 976 Z Z"
                  stroke-miterlimit="10"/>
        </g>
        <g transform="translate(-390,-14) scale(1,1)">
            <path fill="none" stroke="#000000" d="M 1448 1001 L 1647 1001" stroke-miterlimit="10"/>
        </g>
        <g transform="translate(-390,-14) scale(1,1)">
            <g>
                <path fill="none" stroke="none"/>
                <text fill="#000000" stroke="none" font-family="Arial" font-size="13px" font-style="normal"
                      font-weight="bold" text-decoration="none" x="1514.615966796875" y="995.5">Connection
                </text>
            </g>
        </g>
        <g transform="translate(-390,-14) scale(1,1)">
            <g>
                <path fill="none" stroke="none"/>
                <text fill="#000000" stroke="none" font-family="Arial" font-size="13px" font-style="normal"
                      font-weight="normal" text-decoration="none" x="1453" y="1018.5">+send(message: Transmittable)
                </text>
            </g>
        </g>
        <g transform="translate(-390,-14) scale(1,1)">
            <path fill="none" stroke="#000000" d="M 1448 1001 L 1342 1001" stroke-miterlimit="10"/>
        </g>
        <g transform="translate(-390,-14) scale(1,1)">
            <path fill="#FFFFFF" stroke="none"
                  d="M 1362.3253497152482 992.580964487968 L 1342 1001 L 1362.3253497152482 1009.419035512032"/>
        </g>
        <g transform="translate(-390,-14) scale(1,1)">
            <path fill="none" stroke="#000000"
                  d="M 1362.3253497152482 992.580964487968 L 1342 1001 L 1362.3253497152482 1009.419035512032 L 1362.3253497152482 992.580964487968"
                  stroke-miterlimit="10"/>
        </g>
        <g transform="translate(-390,-14) scale(1,1)">
            <path fill="none" stroke="#000000" d="M 1127 120 L 1608 120 L 1608 976" stroke-miterlimit="10"/>
        </g>
        <g transform="translate(-390,-14) scale(1,1)">
            <g>
                <path fill="none" stroke="none"/>
                <text fill="#000000" stroke="none" font-family="Arial" font-size="13px" font-style="normal"
                      font-weight="normal" text-decoration="none" x="1137.13134765625" y="111.5">-Connection
                </text>
            </g>
        </g>
        <g transform="translate(-390,-14) scale(1,1)">
            <g>
                <path fill="none" stroke="none"/>
                <text fill="#000000" stroke="none" font-family="Arial" font-size="13px" font-style="normal"
                      font-weight="normal" text-decoration="none" x="1167.5" y="139.5">1
                </text>
            </g>
        </g>
        <g transform="translate(-390,-14) scale(1,1)">
            <g>
                <path fill="none" stroke="none"/>
                <text fill="#000000" stroke="none" font-family="Arial" font-size="13px" font-style="normal"
                      font-weight="normal" text-decoration="none" x="1617.13134765625" y="972.5">-View
                </text>
            </g>
        </g>
        <g transform="translate(-390,-14) scale(1,1)">
            <g>
                <path fill="none" stroke="none"/>
                <text fill="#000000" stroke="none" font-family="Arial" font-size="13px" font-style="normal"
                      font-weight="normal" text-decoration="none" x="1585.5" y="971.5">0..*
                </text>
            </g>
        </g>
    </g>
</svg>